<svg width="21" height="22" viewBox="0 0 21 22" fill="none" xmlns="http://www.w3.org/2000/svg">
<path d="M10.4 19.8059C15.1788 19.805 19.0667 15.9172 19.0667 11.1384C19.0667 6.36044 15.1788 2.47257 10.4 2.47171C5.62118 2.47171 1.73332 6.35957 1.73332 11.1384C1.73332 15.9172 5.62032 19.805 10.4 19.8059ZM10.4 4.20504C14.2229 4.20591 17.3333 7.31637 17.3333 11.1384C17.3333 14.9612 14.2229 18.0717 10.4 18.0726C6.57712 18.0717 3.46665 14.9612 3.46665 11.1384C3.46665 7.31551 6.57712 4.20504 10.4 4.20504Z" fill="#66565C" fill-opacity="0.7"/>
<path d="M9.53338 14.5999L11.2667 14.5999L11.2667 11.1332L13.8745 11.1332L10.4035 7.66219L6.93338 11.1332L9.53338 11.1332L9.53338 14.5999Z" fill="#66565C" fill-opacity="0.7"/>
</svg>
