<svg width="208" height="72" viewBox="0 0 208 72" fill="none" xmlns="http://www.w3.org/2000/svg">
<path d="M23.2401 35.3972C25.0884 36.1507 27.1791 36.5274 29.5122 36.5274C31.9059 36.5274 33.9814 36.0904 35.7388 35.2164C37.4962 34.3424 38.8294 33.167 39.7384 31.6903C40.6777 30.2135 41.1474 28.571 41.1474 26.7627C41.1474 24.864 40.6777 23.3118 39.7384 22.1063C38.7991 20.9008 37.678 19.9816 36.3751 19.3487C35.1025 18.7158 33.436 18.0527 31.3756 17.3596C29.3152 16.6965 27.8002 16.0787 26.8306 15.5061C25.861 14.9334 25.3762 14.1348 25.3762 13.1101C25.3762 12.1758 25.6641 11.4676 26.2398 10.9854C26.8155 10.473 27.573 10.2168 28.5123 10.2168C29.6031 10.2168 30.4969 10.5182 31.1938 11.121C31.8907 11.6936 32.2695 12.4923 32.3301 13.517H40.7383C40.5868 10.5333 39.4354 8.21265 37.2841 6.55505C35.1328 4.86731 32.2998 4.02345 28.785 4.02345C25.3308 4.02345 22.528 4.86731 20.3767 6.55505C18.2254 8.21265 17.1498 10.5182 17.1498 13.4717C17.1498 15.4609 17.6194 17.0733 18.5587 18.3089C19.498 19.5446 20.6191 20.4789 21.922 21.1118C23.2249 21.7447 24.9066 22.3776 26.967 23.0105C28.3911 23.4324 29.4819 23.8091 30.2394 24.1406C31.0272 24.4722 31.6786 24.8941 32.1937 25.4064C32.7391 25.9188 33.0118 26.5668 33.0118 27.3504C33.0118 28.2846 32.6785 29.023 32.0119 29.5655C31.3453 30.0779 30.4363 30.334 29.2849 30.334C28.1638 30.334 27.2548 30.0327 26.5579 29.4299C25.861 28.797 25.452 27.8928 25.3308 26.7175H17.0589C17.1195 28.797 17.6952 30.5751 18.786 32.0519C19.9071 33.5287 21.3918 34.6438 23.2401 35.3972Z" fill="white"/>
<path d="M48.7482 7.18795C49.6269 7.97154 50.748 8.36333 52.1115 8.36333C53.4447 8.36333 54.5355 7.97154 55.3839 7.18795C56.2626 6.37422 56.7019 5.37966 56.7019 4.20427C56.7019 2.99875 56.2626 2.00419 55.3839 1.2206C54.5355 0.406868 53.4447 0 52.1115 0C50.748 0 49.6269 0.406868 48.7482 1.2206C47.8998 2.00419 47.4756 2.99875 47.4756 4.20427C47.4756 5.37966 47.8998 6.37422 48.7482 7.18795Z" fill="white"/>
<path d="M55.9747 36.211V10.9854H48.2028V36.211H55.9747Z" fill="white"/>
<path d="M78.0144 36.211V29.6559H75.242C74.3936 29.6559 73.7876 29.4902 73.424 29.1586C73.0604 28.8271 72.8786 28.2846 72.8786 27.5312V17.4048H77.969V10.9854H72.8786V4.83717H65.1066V10.9854H62.016V17.4048H65.1066V27.4408C65.1066 30.545 65.8944 32.7903 67.47 34.1766C69.0456 35.5329 71.2424 36.211 74.0603 36.211H78.0144Z" fill="white"/>
<path fill-rule="evenodd" clip-rule="evenodd" d="M108.386 22.694C107.265 21.2474 105.781 20.3282 103.932 19.9364C105.569 19.4542 106.871 18.5952 107.841 17.3596C108.841 16.1239 109.341 14.5718 109.341 12.7032C109.341 10.1716 108.417 8.16744 106.568 6.69067C104.75 5.2139 102.22 4.47552 98.9782 4.47552H84.616V36.211H99.4782C102.811 36.211 105.402 35.4424 107.25 33.9054C109.129 32.3382 110.068 30.2285 110.068 27.5764C110.068 25.738 109.507 24.1105 108.386 22.694ZM97.4784 17.3144H92.388V10.6689H97.4784C98.751 10.6689 99.7206 10.9552 100.387 11.5278C101.084 12.1005 101.433 12.9293 101.433 14.0142C101.433 15.0992 101.084 15.928 100.387 16.5006C99.7206 17.0431 98.751 17.3144 97.4784 17.3144ZM101.114 29.1134C100.417 29.6861 99.4176 29.9724 98.1147 29.9724H92.388V22.9653H98.0238C99.3267 22.9653 100.342 23.2817 101.069 23.9146C101.826 24.5475 102.205 25.4215 102.205 26.5366C102.205 27.6517 101.842 28.5107 101.114 29.1134Z" fill="white"/>
<path fill-rule="evenodd" clip-rule="evenodd" d="M116.757 16.7267C115.788 18.6856 115.303 20.9611 115.303 23.553C115.303 26.1448 115.788 28.4353 116.757 30.4244C117.757 32.3834 119.106 33.9054 120.802 34.9904C122.499 36.0452 124.378 36.5726 126.438 36.5726C128.226 36.5726 129.786 36.211 131.12 35.4877C132.483 34.7643 133.544 33.815 134.301 32.6396V36.211H142.073V10.9854H134.301V14.5567C133.574 13.3813 132.529 12.432 131.165 11.7087C129.832 10.9854 128.271 10.6237 126.484 10.6237C124.393 10.6237 122.499 11.1511 120.802 12.2059C119.106 13.2608 117.757 14.7677 116.757 16.7267ZM132.665 19.0322C133.756 20.1473 134.301 21.6693 134.301 23.5982C134.301 25.527 133.756 27.049 132.665 28.1641C131.604 29.2792 130.301 29.8368 128.756 29.8368C127.211 29.8368 125.893 29.2792 124.802 28.1641C123.742 27.0188 123.211 25.4818 123.211 23.553C123.211 21.6241 123.742 20.1172 124.802 19.0322C125.893 17.9171 127.211 17.3596 128.756 17.3596C130.301 17.3596 131.604 17.9171 132.665 19.0322Z" fill="white"/>
<path d="M172.511 13.6074C170.754 11.6785 168.391 10.7141 165.421 10.7141C163.755 10.7141 162.255 11.0456 160.922 11.7087C159.588 12.3416 158.528 13.2156 157.74 14.3307V10.9854H149.968V36.211H157.74V22.5132C157.74 20.8255 158.179 19.5144 159.058 18.5802C159.937 17.6459 161.119 17.1787 162.603 17.1787C164.088 17.1787 165.27 17.6459 166.148 18.5802C167.027 19.5144 167.466 20.8255 167.466 22.5132V36.211H175.193V21.4734C175.193 18.1281 174.299 15.5061 172.511 13.6074Z" fill="white"/>
<path d="M190.638 25.6325L198.365 36.211H208L197.365 23.6434L207.909 10.9854H198.319L190.638 21.2474V2.75764H182.866V36.211H190.638V25.6325Z" fill="white"/>
<path d="M37.4962 42.8037H12.4987C11.978 33.1585 10.7303 25.0991 8.75563 18.6255C8.23485 16.9093 7.65982 15.6439 7.03055 14.8293C6.40127 14.0147 5.4465 13.6074 4.16625 13.6074C2.7558 13.6074 1.70881 14.0527 1.02529 14.9434C0.341763 15.834 0 16.779 0 17.7783C0 19.3424 0.471958 21.4332 1.41587 24.0509C2.35979 26.6686 2.886 28.5857 2.99449 29.8022C3.08129 30.6929 3.22776 32.5556 3.4339 35.3906C3.64004 38.2255 3.85704 40.6313 4.08488 42.6082C4.31272 44.585 4.60023 46.2143 4.94742 47.4959C5.29461 48.7342 5.75572 49.6031 6.33075 50.1028C6.90578 50.6024 7.62727 50.8902 8.49524 50.9663C9.36321 51.0423 9.84059 51.102 9.92739 51.1455L6.83525 70.9899C6.81355 71.2505 6.90578 71.4841 7.11192 71.6904C7.31806 71.8968 7.56218 72 7.84427 72H10.2529C10.8171 72 11.1534 71.6633 11.2619 70.9899L14.5819 51.1455H31.7351L32.321 70.9573C32.3427 71.2397 32.4512 71.4841 32.6465 71.6904C32.8418 71.8968 33.0696 72 33.33 72H35.5759C35.858 72 36.1021 71.8968 36.3082 71.6904C36.5144 71.4841 36.6066 71.2397 36.5849 70.9573L35.9339 51.1455H37.4962C38.6246 51.1455 39.6011 50.7436 40.4256 49.9398C41.2502 49.1361 41.6625 48.1477 41.6625 46.9746C41.6625 45.8015 41.2556 44.8131 40.4419 44.0093C39.6282 43.2056 38.6463 42.8037 37.4962 42.8037Z" fill="white"/>
</svg>
